#N canvas 264 25 1309 1027 12;
#X obj 287 228 tgl 19 0 empty empty Start/Stop 0 -10 0 12 #fcfcfc #000000 #000000 0 1;
#N canvas 776 25 601 628 clock 0;
#X obj 90 237 bng 19 250 50 0 empty empty empty 0 -10 0 12 #fcfcfc #000000 #000000;
#X msg 72 144 tempo \$1 permin;
#X obj 46 200 metro 1 121 permin;
#X floatatom 153 303 5 0 0 0 - - - 0;
#X obj 208 398 % 16;
#X floatatom 247 507 5 0 0 0 - - - 0;
#X floatatom 148 102 5 0 0 0 - - - 0;
#X obj 148 15 inlet tempo;
#X obj 46 15 inlet onoff;
#X obj 92 488 outlet count;
#X obj 207 561 outlet beat;
#X obj 209 144 outlet tempo;
#X msg 359 146 1;
#X obj 73 344 + 1;
#X obj 208 368 - 1;
#X obj 208 428 + 1;
#X obj 31 131 tgl 19 0 empty empty empty 0 -10 0 12 #fcfcfc #000000 #000000 0 1;
#X floatatom 362 461 5 0 0 0 - - - 0;
#X obj 313 366 - 1;
#X obj 313 426 + 1;
#X obj 320 526 outlet pulse;
#X obj 313 396 % 4;
#X obj 413 350 - 1;
#X floatatom 437 514 5 0 0 0 - - - 0;
#X obj 415 389 % 16;
#X obj 415 419 / 4;
#X obj 416 448 int;
#X obj 417 477 + 1;
#X obj 452 562 outlet measure;
#X obj 257 13 inlet reset;
#X obj 10 277 loadbang;
#X msg 25 305 1;
#X connect 1 0 2 0;
#X connect 2 0 13 0;
#X connect 2 0 0 0;
#X connect 3 0 13 1;
#X connect 3 0 14 0;
#X connect 3 0 9 0;
#X connect 3 0 18 0;
#X connect 3 0 22 0;
#X connect 4 0 15 0;
#X connect 6 0 1 0;
#X connect 6 0 11 0;
#X connect 7 0 6 0;
#X connect 8 0 16 0;
#X connect 12 0 3 0;
#X connect 13 0 3 0;
#X connect 14 0 4 0;
#X connect 15 0 10 0;
#X connect 15 0 5 0;
#X connect 16 0 2 0;
#X connect 18 0 21 0;
#X connect 19 0 17 0;
#X connect 19 0 20 0;
#X connect 21 0 19 0;
#X connect 22 0 24 0;
#X connect 23 0 28 0;
#X connect 24 0 25 0;
#X connect 25 0 26 0;
#X connect 26 0 27 0;
#X connect 27 0 23 0;
#X connect 29 0 12 0;
#X connect 30 0 31 0;
#X connect 31 0 13 0;
#X restore 286 354 pd clock;
#X floatatom 268 542 5 0 0 0 - - - 0;
#X floatatom 297 491 5 0 0 0 - - - 0;
#X floatatom 224 433 5 0 0 0 - - - 0;
#X obj 240 230 vsl 19 162 40 500 0 1 empty empty Tempo 0 -9 0 12 #fcfcfc #000000 #000000 3850 1;
#X floatatom 313 448 5 0 0 0 - - - 0;
#X floatatom 329 414 5 0 0 0 - - - 0;
#X text 309 544 Total pulses elapsed;
#X text 340 488 Pulse in phrase;
#X text 351 452 Pulse in measure;
#X text 372 414 Measure in phrase;
#X obj 562 539 hradio 19 1 0 16 empty empty empty 0 -10 0 12 #fcfcfc #000000 #000000 0;
#X obj 561 513 hradio 19 1 0 4 empty empty empty 0 -10 0 12 #fcfcfc #000000 #000000 0;
#X obj 561 486 hradio 19 1 1 4 empty empty empty 0 -10 0 12 #fcfcfc #000000 #000000 0;
#X obj 493 440 - 1;
#X obj 493 487 - 1;
#X obj 486 544 - 1;
#X obj 485 796 bng 50 150 50 0 empty empty empty 0 -10 0 12 #fcfcfc #000000 #000000;
#X obj 557 651 tgl 19 0 empty empty empty 0 -10 0 12 #fcfcfc #000000 #000000 0 1;
#X obj 340 254 bng 19 250 50 0 empty empty Reset\ count 0 -10 0 12 #fcfcfc #000000 #000000;
#N canvas 1041 192 879 819 seq 1;
#X obj 290 732 bng 19 250 50 0 empty empty empty 0 -10 0 12 #fcfcfc #000000 #000000;
#X obj 26 146 select 0 1 2 3 4 5 6 7 8 9 10 11 12 13 14 15;
#X obj 100 458 spigot;
#X obj 154 458 spigot;
#X obj 207 458 spigot;
#X obj 259 458 spigot;
#X obj 290 775 outlet;
#X floatatom 26 61 5 0 0 0 - - - 0;
#X obj 26 103 hradio 19 1 0 16 empty empty empty 0 -10 0 12 #fcfcfc #000000 #000000 0;
#X obj 45 270 tgl 19 0 empty empty empty 0 -10 0 12 #fcfcfc #000000 #000000 0 1;
#X obj 110 270 tgl 19 0 empty empty empty 0 -10 0 12 #fcfcfc #000000 #000000 0 1;
#X obj 26 18 inlet count;
#X obj 110 227 inlet s2;
#X obj 45 227 inlet s1;
#X obj 175 227 inlet s3;
#X obj 240 227 inlet s4;
#X obj 175 270 tgl 19 0 empty empty empty 0 -10 0 12 #fcfcfc #000000 #000000 0 1;
#X obj 240 270 tgl 19 0 empty empty empty 0 -10 0 12 #fcfcfc #000000 #000000 0 1;
#X obj 305 270 tgl 19 0 empty empty empty 0 -10 0 12 #fcfcfc #000000 #000000 0 1;
#X obj 370 270 tgl 19 0 empty empty empty 0 -10 0 12 #fcfcfc #000000 #000000 0 1;
#X obj 435 270 tgl 19 0 empty empty empty 0 -10 0 12 #fcfcfc #000000 #000000 0 1;
#X obj 500 270 tgl 19 0 empty empty empty 0 -10 0 12 #fcfcfc #000000 #000000 0 1;
#X obj 566 270 tgl 19 0 empty empty empty 0 -10 0 12 #fcfcfc #000000 #000000 0 1;
#X obj 631 270 tgl 19 0 empty empty empty 0 -10 0 12 #fcfcfc #000000 #000000 0 1;
#X obj 696 270 tgl 19 0 empty empty empty 0 -10 0 12 #fcfcfc #000000 #000000 0 1;
#X obj 761 270 tgl 19 0 empty empty empty 0 -10 0 12 #fcfcfc #000000 #000000 0 1;
#X obj 826 270 tgl 19 0 empty empty empty 0 -10 0 12 #fcfcfc #000000 #000000 0 1;
#X obj 891 270 tgl 19 0 empty empty empty 0 -10 0 12 #fcfcfc #000000 #000000 0 1;
#X obj 956 270 tgl 19 0 empty empty empty 0 -10 0 12 #fcfcfc #000000 #000000 0 1;
#X obj 1021 270 tgl 19 0 empty empty empty 0 -10 0 12 #fcfcfc #000000 #000000 0 1;
#X obj 305 227 inlet s5;
#X obj 370 227 inlet s6;
#X obj 435 227 inlet s7;
#X obj 500 227 inlet s8;
#X obj 566 227 inlet s9;
#X obj 631 227 inlet s10;
#X obj 696 227 inlet s11;
#X obj 761 227 inlet s12;
#X obj 826 227 inlet s13;
#X obj 891 227 inlet s14;
#X obj 956 227 inlet s15;
#X obj 1021 227 inlet s16;
#X obj 315 458 spigot;
#X obj 369 458 spigot;
#X obj 422 458 spigot;
#X obj 474 458 spigot;
#X obj 529 458 spigot;
#X obj 583 458 spigot;
#X obj 636 458 spigot;
#X obj 688 458 spigot;
#X obj 744 458 spigot;
#X obj 798 458 spigot;
#X obj 851 458 spigot;
#X obj 903 458 spigot;
#X connect 0 0 6 0;
#X connect 1 0 2 0;
#X connect 1 1 3 0;
#X connect 1 2 4 0;
#X connect 1 3 5 0;
#X connect 1 4 42 0;
#X connect 1 5 43 0;
#X connect 1 6 44 0;
#X connect 1 7 45 0;
#X connect 1 8 46 0;
#X connect 1 9 47 0;
#X connect 1 10 48 0;
#X connect 1 11 49 0;
#X connect 1 12 50 0;
#X connect 1 13 51 0;
#X connect 1 14 52 0;
#X connect 1 15 53 0;
#X connect 2 0 0 0;
#X connect 3 0 0 0;
#X connect 4 0 0 0;
#X connect 5 0 0 0;
#X connect 11 0 8 0;
#X connect 11 0 7 0;
#X connect 11 0 1 0;
#X connect 12 0 10 0;
#X connect 12 0 3 1;
#X connect 13 0 9 0;
#X connect 13 0 2 1;
#X connect 14 0 16 0;
#X connect 14 0 4 1;
#X connect 15 0 17 0;
#X connect 15 0 5 1;
#X connect 30 0 18 0;
#X connect 30 0 42 1;
#X connect 31 0 19 0;
#X connect 31 0 43 1;
#X connect 32 0 20 0;
#X connect 32 0 44 1;
#X connect 33 0 21 0;
#X connect 33 0 45 1;
#X connect 34 0 22 0;
#X connect 34 0 46 1;
#X connect 35 0 23 0;
#X connect 35 0 47 1;
#X connect 36 0 24 0;
#X connect 36 0 48 1;
#X connect 37 0 25 0;
#X connect 37 0 49 1;
#X connect 38 0 26 0;
#X connect 38 0 50 1;
#X connect 39 0 27 0;
#X connect 39 0 51 1;
#X connect 40 0 28 0;
#X connect 40 0 52 1;
#X connect 41 0 29 0;
#X connect 41 0 53 1;
#X connect 42 0 0 0;
#X connect 43 0 0 0;
#X connect 44 0 0 0;
#X connect 45 0 0 0;
#X connect 46 0 0 0;
#X connect 47 0 0 0;
#X connect 48 0 0 0;
#X connect 49 0 0 0;
#X connect 50 0 0 0;
#X connect 51 0 0 0;
#X connect 52 0 0 0;
#X connect 53 0 0 0;
#X restore 574 746 pd seq;
#X f 41;
#X floatatom 495 593 5 0 0 0 - - - 0;
#X obj 718 650 tgl 19 0 empty empty empty 0 -10 0 12 #fcfcfc #000000 #000000 0 1;
#X obj 599 651 tgl 19 0 empty empty empty 0 -10 0 12 #fcfcfc #000000 #000000 0 1;
#X obj 739 650 tgl 19 0 empty empty empty 0 -10 0 12 #fcfcfc #000000 #000000 0 1;
#X obj 647 650 tgl 19 0 empty empty empty 0 -10 0 12 #fcfcfc #000000 #000000 0 1;
#X obj 760 650 tgl 19 0 empty empty empty 0 -10 0 12 #fcfcfc #000000 #000000 0 1;
#X obj 691 650 tgl 19 0 empty empty empty 0 -10 0 12 #fcfcfc #000000 #000000 0 1;
#X obj 781 650 tgl 19 0 empty empty empty 0 -10 0 12 #fcfcfc #000000 #000000 0 1;
#X obj 536 651 tgl 19 0 empty empty empty 0 -10 0 12 #fcfcfc #000000 #000000 0 1;
#X obj 807 650 tgl 19 0 empty empty empty 0 -10 0 12 #fcfcfc #000000 #000000 0 1;
#X obj 578 651 tgl 19 0 empty empty empty 0 -10 0 12 #fcfcfc #000000 #000000 0 1;
#X obj 828 650 tgl 19 0 empty empty empty 0 -10 0 12 #fcfcfc #000000 #000000 0 1;
#X obj 625 650 tgl 19 0 empty empty empty 0 -10 0 12 #fcfcfc #000000 #000000 0 1;
#X obj 849 650 tgl 19 0 empty empty empty 0 -10 0 12 #fcfcfc #000000 #000000 0 1;
#X obj 669 650 tgl 19 0 empty empty empty 0 -10 0 12 #fcfcfc #000000 #000000 0 1;
#X obj 871 650 tgl 19 0 empty empty empty 0 -10 0 12 #fcfcfc #000000 #000000 0 1;
#X obj 227 606 tgl 19 0 empty empty empty 0 -10 0 12 #fcfcfc #000000 #000000 0 1;
#X msg 215 657 \; pd dsp \$1;
#N canvas 0 22 450 278 (subpatch) 0;
#X array array1 100 float 3;
#A 0 32 0 0 0 0 0 0 0 0 0.0714279 0.128571 0.185714 0.228572 0.271429 0.285715 0.300001 0.314287 0.314287 0.314287 0.314287 0.314287 0.314287 0.307144 0.300001 0.285715 0.271429 0.257143 0.242858 0.2 0.178571 0.157143 0.135714 0.114285 0.0857137 0.0571421 0.0142847 -0.0142869 -0.0857159 -0.157145 -0.214288 -0.750006 -0.714291 -0.671434 -0.628576 -0.585719 -0.542862 -0.500004 0.614286 -0.407146 -0.357146 -0.271431 -0.214288 -0.157145 -0.0857159 -0.0142869 0.0999995 0.51905 0.528574 0.533336 0.538098 0.54286 0.54286 0.54286 0.54286 0.547622 0.552383 0.557145 0.557145 0.557145 0.557145 0.557145 0.557145 0.552383 0.547622 0.54286 0.535717 0.528574 0.514288 -0.328574 -0.328574 -0.257145 -0.142859 -0.0142867 0 0 0 0 0 0 0 0 0 0 0 0 0 0 0 0 0;
#A color 0;
#A width 2;
#X coords 0 1 100 -1 200 140 1;
#X restore 610 162 graph;
#X floatatom 477 159 5 0 0 0 - - - 0;
#X obj 477 199 tabwrite array1;
#X obj 478 280 tabread array1;
#X floatatom 477 316 5 0 0 0 - - - 0;
#X floatatom 477 245 5 0 0 0 - - - 0;
#X obj 195 127 loadbang;
#X msg 201 184 150;
#X obj 322 150 print;
#X obj 288 126 key;
#X obj 287 175 route 32;
#X obj 683 816 cos~;
#X obj 977 433 osc~ 220;
#X obj 964 582 output~;
#X floatatom 970 303 5 0 0 0 - - - 0;
#X obj 1014 708 adsr~;
#X connect 0 0 1 0;
#X connect 1 0 2 0;
#X connect 1 1 3 0;
#X connect 1 2 4 0;
#X connect 1 3 6 0;
#X connect 1 4 7 0;
#X connect 3 0 17 0;
#X connect 5 0 1 1;
#X connect 6 0 16 0;
#X connect 7 0 15 0;
#X connect 12 0 22 0;
#X connect 12 0 21 0;
#X connect 15 0 14 0;
#X connect 16 0 13 0;
#X connect 17 0 12 0;
#X connect 19 0 21 2;
#X connect 20 0 1 2;
#X connect 21 0 18 0;
#X connect 23 0 21 9;
#X connect 24 0 21 4;
#X connect 25 0 21 10;
#X connect 26 0 21 6;
#X connect 27 0 21 11;
#X connect 28 0 21 8;
#X connect 29 0 21 12;
#X connect 30 0 21 1;
#X connect 31 0 21 13;
#X connect 32 0 21 3;
#X connect 33 0 21 14;
#X connect 34 0 21 5;
#X connect 35 0 21 15;
#X connect 36 0 21 7;
#X connect 37 0 21 16;
#X connect 38 0 39 0;
#X connect 41 0 42 0;
#X connect 43 0 44 0;
#X connect 45 0 43 0;
#X connect 46 0 47 0;
#X connect 46 0 30 0;
#X connect 46 0 34 0;
#X connect 46 0 23 0;
#X connect 46 0 31 0;
#X connect 47 0 5 0;
#X connect 49 0 48 0;
#X connect 49 0 50 0;
#X connect 50 0 0 0;
#X connect 52 0 53 0;
#X connect 52 0 53 1;
#X connect 54 0 52 0;
