#N canvas 652 89 821 649 12;
#X obj 48 193 tgl 19 0 empty empty empty 0 -10 0 12 #fcfcfc #000000 #000000 0 1;
#N canvas 1025 155 598 682 clock 0;
#X obj 97 317 bng 19 250 50 0 empty empty empty 0 -10 0 12 #fcfcfc #000000 #000000;
#X msg 79 224 tempo \$1 permin;
#X obj 53 280 metro 1 121 permin;
#X floatatom 160 383 5 0 0 0 - - - 0;
#X obj 215 478 % 16;
#X floatatom 254 587 5 0 0 0 - - - 0;
#X floatatom 155 182 5 0 0 0 - - - 0;
#X obj 155 95 inlet tempo;
#X obj 53 95 inlet onoff;
#X obj 99 568 outlet count;
#X obj 214 641 outlet beat;
#X obj 216 224 outlet tempo;
#X msg 13 319 1;
#X obj 90 379 + 1;
#X obj 215 448 - 1;
#X obj 215 508 + 1;
#X msg 203 338 1;
#X text 241 338 <- reset counts;
#X obj 54 184 tgl 19 0 empty empty empty 0 -10 0 12 #fcfcfc #000000 #000000 0 1;
#X floatatom 369 541 5 0 0 0 - - - 0;
#X obj 320 446 - 1;
#X obj 320 506 + 1;
#X obj 327 606 outlet pulse;
#X obj 320 476 % 4;
#X obj 420 430 - 1;
#X floatatom 444 594 5 0 0 0 - - - 0;
#X obj 422 469 % 16;
#X obj 422 499 / 4;
#X obj 423 528 int;
#X obj 424 557 + 1;
#X obj 459 642 outlet measure;
#X connect 1 0 2 0;
#X connect 2 0 0 0;
#X connect 2 0 13 0;
#X connect 3 0 13 1;
#X connect 3 0 14 0;
#X connect 3 0 9 0;
#X connect 3 0 20 0;
#X connect 3 0 24 0;
#X connect 4 0 15 0;
#X connect 6 0 1 0;
#X connect 6 0 11 0;
#X connect 7 0 6 0;
#X connect 8 0 18 0;
#X connect 12 0 13 0;
#X connect 13 0 3 0;
#X connect 14 0 4 0;
#X connect 15 0 10 0;
#X connect 15 0 5 0;
#X connect 16 0 3 0;
#X connect 18 0 2 0;
#X connect 18 0 16 0;
#X connect 18 0 12 0;
#X connect 18 0 3 0;
#X connect 20 0 23 0;
#X connect 21 0 19 0;
#X connect 21 0 22 0;
#X connect 23 0 21 0;
#X connect 24 0 26 0;
#X connect 25 0 30 0;
#X connect 26 0 27 0;
#X connect 27 0 28 0;
#X connect 28 0 29 0;
#X connect 29 0 25 0;
#X restore 49 239 pd clock;
#X floatatom 31 427 5 0 0 0 - - - 0;
#X floatatom 60 376 5 0 0 0 - - - 0;
#X floatatom 232 234 5 0 0 0 - - - 0;
#X obj 103 54 vsl 19 162 40 200 0 0 empty empty empty 0 -9 0 12 #fcfcfc #000000 #000000 0 1;
#X floatatom 76 333 5 0 0 0 - - - 0;
#X floatatom 92 299 5 0 0 0 - - - 0;
#X text 72 429 Total pulses elapsed;
#X text 103 373 Pulse in phrase;
#X text 114 337 Pulse in measure;
#X text 135 299 Measure in phrase;
#X obj 325 424 hradio 19 1 0 16 empty empty empty 0 -10 0 12 #fcfcfc #000000 #000000 0;
#X obj 324 398 hradio 19 1 0 4 empty empty empty 0 -10 0 12 #fcfcfc #000000 #000000 0;
#X obj 324 371 hradio 19 1 1 4 empty empty empty 0 -10 0 12 #fcfcfc #000000 #000000 0;
#X obj 256 325 - 1;
#X obj 256 372 - 1;
#X obj 249 429 - 1;
#X msg 527 501 72 90 1;
#X obj 525 562 noteout;
#X text 593 503 Note \, Velocity \, Channel;
#X connect 0 0 1 0;
#X connect 1 0 2 0;
#X connect 1 1 3 0;
#X connect 1 2 4 0;
#X connect 1 3 6 0;
#X connect 1 4 7 0;
#X connect 3 0 17 0;
#X connect 5 0 1 1;
#X connect 6 0 16 0;
#X connect 7 0 15 0;
#X connect 15 0 14 0;
#X connect 16 0 13 0;
#X connect 17 0 12 0;
#X connect 18 0 19 0;
