#N canvas 303 38 436 707 12;
#X obj 48 193 tgl 19 0 empty empty empty 0 -10 0 12 #fcfcfc #000000 #000000 0 1;
#N canvas 727 207 598 682 clock 0;
#X obj 14 308 bng 19 250 50 0 empty empty empty 0 -10 0 12 #fcfcfc #000000 #000000;
#X msg 79 224 tempo \$1 permin;
#X obj 53 280 metro 1 121 permin;
#X floatatom 150 394 5 0 0 0 - - - 0;
#X obj 215 478 % 16;
#X floatatom 215 538 5 0 0 0 - - - 0;
#X floatatom 155 182 5 0 0 0 - - - 0;
#X obj 155 95 inlet tempo;
#X obj 53 95 inlet onoff;
#X obj 99 568 outlet count;
#X obj 215 567 outlet beat;
#X obj 216 224 outlet tempo;
#X msg 93 308 1;
#X obj 93 338 + 1;
#X obj 215 448 - 1;
#X obj 215 508 + 1;
#X msg 203 338 1;
#X text 241 338 <- reset counts;
#X obj 54 184 tgl 19 0 empty empty empty 0 -10 0 12 #fcfcfc #000000 #000000 0 1;
#X floatatom 320 536 5 0 0 0 - - - 0;
#X obj 320 446 - 1;
#X obj 320 506 + 1;
#X obj 320 565 outlet pulse;
#X obj 320 476 % 4;
#X connect 1 0 2 0;
#X connect 2 0 0 0;
#X connect 2 0 13 0;
#X connect 3 0 13 1;
#X connect 3 0 14 0;
#X connect 3 0 9 0;
#X connect 3 0 20 0;
#X connect 4 0 15 0;
#X connect 6 0 1 0;
#X connect 6 0 11 0;
#X connect 7 0 6 0;
#X connect 8 0 18 0;
#X connect 12 0 13 0;
#X connect 13 0 3 0;
#X connect 14 0 4 0;
#X connect 15 0 5 0;
#X connect 15 0 10 0;
#X connect 16 0 3 0;
#X connect 18 0 2 0;
#X connect 18 0 16 0;
#X connect 20 0 23 0;
#X connect 21 0 19 0;
#X connect 21 0 22 0;
#X connect 23 0 21 0;
#X restore 49 239 pd clock;
#X floatatom 57 364 5 0 0 0 - - - 0;
#X floatatom 68 341 5 0 0 0 - - - 0;
#X floatatom 253 292 5 0 0 0 - - - 0;
#X obj 103 54 vsl 19 162 40 200 0 0 empty empty empty 0 -9 0 12 #fcfcfc #000000 #000000 0 1;
#X floatatom 77 321 5 0 0 0 - - - 0;
#X connect 0 0 1 0;
#X connect 1 0 2 0;
#X connect 1 1 3 0;
#X connect 1 2 4 0;
#X connect 1 3 6 0;
#X connect 5 0 1 1;
