#N canvas 1283 52 1512 916 12;
#X obj 331 189 soundfiler;
#N canvas 0 22 450 278 (subpatch) 0;
#X array asdf 105840 float 2;
#A color 0;
#A width 2;
#X coords 0 1 105840 -1 200 140 1;
#X restore 695 142 graph;
#X msg 665 588 set asdf;
#X floatatom 331 212 17 0 0 0 - - - 0;
#X obj 682 856 dac~;
#X msg 505 303 0 \$1;
#X obj 331 235 / 16;
#X floatatom 331 259 9 0 0 0 - - - 0;
#X msg 684 618 stop;
#X obj 696 280 hsl 200 19 0 105840 0 0 empty empty empty -2 -10 0 12 #fcfcfc #000000 #000000 0 1;
#X msg 466 244 range 0 \$1;
#X obj 505 327 line 0 100000;
#X obj 117 336 tgl 19 0 empty empty empty 0 -10 0 12 #fcfcfc #000000 #000000 0 1;
#X floatatom 159 425 5 0 0 0 - - - 0;
#X obj 117 438 + 1;
#X floatatom 189 296 5 0 0 0 - - - 0;
#X floatatom 117 504 5 0 0 0 - - - 0;
#X obj 117 480 mod 16;
#X obj 117 568 bng 19 250 50 0 empty empty empty 0 -10 0 12 #fcfcfc #000000 #000000;
#X obj 117 535 select 5 13;
#X text 168 515 Snare on 2 and 4;
#X obj 676 819 freeverb~;
#X obj 772 586 vsl 19 162 0 1 0 0 empty empty empty 0 -9 0 12 #fcfcfc #000000 #000000 0 1;
#X msg 773 764 wet \$1;
#X obj 840 589 vsl 19 162 0 1 0 0 empty empty empty 0 -9 0 12 #fcfcfc #000000 #000000 0 1;
#X msg 838 766 dry \$1;
#N canvas 120 201 1306 658 seq1 0;
#X obj 35 246 bng 19 250 50 0 empty empty empty 0 -10 0 12 #fcfcfc #000000 #000000;
#X obj 106 247 bng 19 250 50 0 empty empty empty 0 -10 0 12 #fcfcfc #000000 #000000;
#X floatatom 179 272 8 0 0 0 - - - 0;
#X obj 179 247 bng 19 250 50 0 empty empty empty 0 -10 0 12 #fcfcfc #000000 #000000;
#X floatatom 105 271 8 0 0 0 - - - 0;
#X floatatom 35 271 7 0 0 0 - - - 0;
#X floatatom 251 270 8 0 0 0 - - - 0;
#X obj 252 246 bng 19 250 50 0 empty empty empty 0 -10 0 12 #fcfcfc #000000 #000000;
#X floatatom 332 270 8 0 0 0 - - - 0;
#X obj 331 245 bng 19 250 50 0 empty empty empty 0 -10 0 12 #fcfcfc #000000 #000000;
#X floatatom 406 271 8 0 0 0 - - - 0;
#X obj 406 246 bng 19 250 50 0 empty empty empty 0 -10 0 12 #fcfcfc #000000 #000000;
#X obj 478 247 bng 19 250 50 0 empty empty empty 0 -10 0 12 #fcfcfc #000000 #000000;
#X obj 549 248 bng 19 250 50 0 empty empty empty 0 -10 0 12 #fcfcfc #000000 #000000;
#X floatatom 622 273 8 0 0 0 - - - 0;
#X obj 622 248 bng 19 250 50 0 empty empty empty 0 -10 0 12 #fcfcfc #000000 #000000;
#X floatatom 548 272 8 0 0 0 - - - 0;
#X floatatom 478 272 7 0 0 0 - - - 0;
#X floatatom 694 271 8 0 0 0 - - - 0;
#X obj 695 247 bng 19 250 50 0 empty empty empty 0 -10 0 12 #fcfcfc #000000 #000000;
#X floatatom 775 271 8 0 0 0 - - - 0;
#X obj 774 246 bng 19 250 50 0 empty empty empty 0 -10 0 12 #fcfcfc #000000 #000000;
#X floatatom 849 272 8 0 0 0 - - - 0;
#X obj 849 247 bng 19 250 50 0 empty empty empty 0 -10 0 12 #fcfcfc #000000 #000000;
#X floatatom 920 272 8 0 0 0 - - - 0;
#X obj 920 247 bng 19 250 50 0 empty empty empty 0 -10 0 12 #fcfcfc #000000 #000000;
#X floatatom 992 270 8 0 0 0 - - - 0;
#X obj 993 246 bng 19 250 50 0 empty empty empty 0 -10 0 12 #fcfcfc #000000 #000000;
#X floatatom 1073 270 8 0 0 0 - - - 0;
#X obj 1072 245 bng 19 250 50 0 empty empty empty 0 -10 0 12 #fcfcfc #000000 #000000;
#X floatatom 1147 271 8 0 0 0 - - - 0;
#X obj 1147 246 bng 19 250 50 0 empty empty empty 0 -10 0 12 #fcfcfc #000000 #000000;
#X obj 61 245 * 0;
#X obj 282 246 * 3;
#X obj 361 247 * 4;
#X obj 433 247 * 5;
#X obj 504 246 * 6;
#X obj 577 247 * 7;
#X obj 650 249 * 8;
#X obj 804 248 * 10;
#X obj 725 247 * 9;
#X obj 876 248 * 11;
#X obj 948 248 * 12;
#X obj 1023 246 * 13;
#X obj 1102 247 * 14;
#X obj 1174 247 * 15;
#X obj 66 68 select 1 2 3 4 5 6 7 8 9 10 11 12 13 14 15 16;
#X obj 65 22 inlet num;
#X obj 608 527 outlet msg;
#X obj 618 59 inlet slice_size;
#X obj 1034 59 inlet slice_length;
#X obj 607 473 pack f f;
#X obj 343 542 print;
#X obj 134 246 * 0;
#X obj 207 248 * 1;
#X connect 0 0 5 0;
#X connect 1 0 4 0;
#X connect 2 0 51 0;
#X connect 3 0 2 0;
#X connect 4 0 51 0;
#X connect 5 0 51 0;
#X connect 6 0 51 0;
#X connect 7 0 6 0;
#X connect 8 0 51 0;
#X connect 9 0 8 0;
#X connect 10 0 51 0;
#X connect 11 0 10 0;
#X connect 12 0 17 0;
#X connect 13 0 16 0;
#X connect 14 0 51 0;
#X connect 15 0 14 0;
#X connect 16 0 51 0;
#X connect 17 0 51 0;
#X connect 18 0 51 0;
#X connect 19 0 18 0;
#X connect 20 0 51 0;
#X connect 21 0 20 0;
#X connect 22 0 51 0;
#X connect 23 0 22 0;
#X connect 24 0 51 0;
#X connect 25 0 24 0;
#X connect 26 0 51 0;
#X connect 27 0 26 0;
#X connect 28 0 51 0;
#X connect 29 0 28 0;
#X connect 30 0 51 0;
#X connect 31 0 30 0;
#X connect 32 0 5 0;
#X connect 33 0 6 0;
#X connect 34 0 8 0;
#X connect 35 0 10 0;
#X connect 36 0 17 0;
#X connect 37 0 16 0;
#X connect 38 0 14 0;
#X connect 39 0 20 0;
#X connect 40 0 18 0;
#X connect 41 0 22 0;
#X connect 42 0 24 0;
#X connect 43 0 26 0;
#X connect 44 0 28 0;
#X connect 45 0 30 0;
#X connect 46 0 0 0;
#X connect 46 1 1 0;
#X connect 46 2 3 0;
#X connect 46 3 7 0;
#X connect 46 4 9 0;
#X connect 46 5 11 0;
#X connect 46 6 12 0;
#X connect 46 7 13 0;
#X connect 46 8 15 0;
#X connect 46 9 19 0;
#X connect 46 10 21 0;
#X connect 46 11 23 0;
#X connect 46 12 25 0;
#X connect 46 13 27 0;
#X connect 46 14 29 0;
#X connect 46 15 31 0;
#X connect 47 0 46 0;
#X connect 49 0 32 0;
#X connect 49 0 33 0;
#X connect 49 0 34 0;
#X connect 49 0 35 0;
#X connect 49 0 36 0;
#X connect 49 0 37 0;
#X connect 49 0 38 0;
#X connect 49 0 40 0;
#X connect 49 0 39 0;
#X connect 49 0 41 0;
#X connect 49 0 42 0;
#X connect 49 0 43 0;
#X connect 49 0 44 0;
#X connect 49 0 45 0;
#X connect 49 0 53 0;
#X connect 49 0 54 0;
#X connect 50 0 51 1;
#X connect 51 0 52 0;
#X connect 51 0 48 0;
#X connect 53 0 4 0;
#X connect 54 0 2 0;
#X restore 528 602 pd seq1;
#X floatatom 563 371 19 0 0 0 - - - 0;
#X floatatom 245 653 3 0 0 0 - - - 0;
#X msg 575 399 set \$1;
#X msg 116 597 13;
#X text 43 617 Step # with snare sound;
#X obj 77 199 loadbang;
#X msg 81 386 1;
#X text 140 336 RUN!;
#X obj 189 364 print;
#X obj 190 565 bng 19 250 50 0 empty empty empty 0 -10 0 12 #fcfcfc #000000 #000000;
#X obj 117 391 metro 1 480 permin;
#X msg 189 340 tempo \$1 permin;
#X obj 245 630 random 16;
#X text 272 655 Step#;
#X listbox 323 817 27 0 0 0 - - - 0;
#X floatatom 695 305 18 0 0 0 - - - 0;
#X obj 1021 476 vradio 19 1 0 16 empty empty empty 0 -10 0 12 #fcfcfc #000000 #000000 0;
#X obj 1042 476 vradio 19 1 0 16 empty empty empty 0 -10 0 12 #fcfcfc #000000 #000000 0;
#X obj 1063 476 vradio 19 1 0 16 empty empty empty 0 -10 0 12 #fcfcfc #000000 #000000 0;
#X obj 1084 476 vradio 19 1 0 16 empty empty empty 0 -10 0 12 #fcfcfc #000000 #000000 0;
#X obj 1110 476 vradio 19 1 0 16 empty empty empty 0 -10 0 12 #fcfcfc #000000 #000000 0;
#X obj 1131 476 vradio 19 1 0 16 empty empty empty 0 -10 0 12 #fcfcfc #000000 #000000 0;
#X obj 1152 476 vradio 19 1 0 16 empty empty empty 0 -10 0 12 #fcfcfc #000000 #000000 0;
#X obj 1173 476 vradio 19 1 0 16 empty empty empty 0 -10 0 12 #fcfcfc #000000 #000000 0;
#X obj 1197 476 vradio 19 1 0 16 empty empty empty 0 -10 0 12 #fcfcfc #000000 #000000 0;
#X obj 1218 476 vradio 19 1 0 16 empty empty empty 0 -10 0 12 #fcfcfc #000000 #000000 0;
#X obj 1239 476 vradio 19 1 0 16 empty empty empty 0 -10 0 12 #fcfcfc #000000 #000000 0;
#X obj 1260 476 vradio 19 1 0 16 empty empty empty 0 -10 0 12 #fcfcfc #000000 #000000 0;
#X obj 1284 476 vradio 19 1 0 16 empty empty empty 0 -10 0 12 #fcfcfc #000000 #000000 0;
#X obj 1305 476 vradio 19 1 0 16 empty empty empty 0 -10 0 12 #fcfcfc #000000 #000000 0;
#X obj 1326 476 vradio 19 1 0 16 empty empty empty 0 -10 0 12 #fcfcfc #000000 #000000 0;
#X obj 1347 476 vradio 19 1 0 16 empty empty empty 0 -10 0 12 #fcfcfc #000000 #000000 0;
#X obj 37 53 tgl 19 0 empty empty empty 0 -10 0 12 #fcfcfc #000000 #000000 0 1;
#X msg 37 90 \; pd dsp \$1;
#X floatatom 1022 785 2 0 0 0 - - - 0;
#X floatatom 1042 785 2 0 0 0 - - - 0;
#X floatatom 1063 785 2 0 0 0 - - - 0;
#X floatatom 1084 785 2 0 0 0 - - - 0;
#X floatatom 1110 785 2 0 0 0 - - - 0;
#X floatatom 1131 785 2 0 0 0 - - - 0;
#X floatatom 1152 785 2 0 0 0 - - - 0;
#X floatatom 1173 786 2 0 0 0 - - - 0;
#X floatatom 1197 784 2 0 0 0 - - - 0;
#X floatatom 1218 784 2 0 0 0 - - - 0;
#X floatatom 1239 785 2 0 0 0 - - - 0;
#X floatatom 1260 784 2 0 0 0 - - - 0;
#X floatatom 1284 784 2 0 0 0 - - - 0;
#X floatatom 1305 784 2 0 0 0 - - - 0;
#X floatatom 1326 784 2 0 0 0 - - - 0;
#X floatatom 1347 784 2 0 0 0 - - - 0;
#X obj 830 32 bng 19 250 50 0 empty empty empty 0 -10 0 12 #fcfcfc #000000 #000000;
#N canvas 1573 126 1281 809 rand 0;
#X obj 544 165 inlet bang;
#X obj 545 198 bng 19 250 50 0 empty empty empty 0 -10 0 12 #fcfcfc #000000 #000000;
#X obj 414 632 pack f1 f2 f3 f4 f5 f6 f7 f8 f9 f10 f11 f12 f13 f14 f15 f16;
#X obj 84 727 outlet list;
#X obj 291 377 random 16;
#X obj 363 377 random 16;
#X obj 439 376 random 16;
#X obj 515 376 random 16;
#X obj 589 376 random 16;
#X obj 665 374 random 16;
#X obj 741 373 random 16;
#X obj 817 373 random 16;
#X obj 891 373 random 16;
#X obj 963 373 random 16;
#X obj 1039 372 random 16;
#X obj 1115 372 random 16;
#X obj 1189 372 random 16;
#X obj 217 377 random 16;
#X obj 141 377 random 16;
#X obj 65 378 random 16;
#X obj 79 499 select 5 13;
#X obj 164 499 select 5 13;
#X obj 248 499 select 5 13;
#X obj 333 499 select 5 13;
#X obj 417 499 select 5 13;
#X obj 502 499 select 5 13;
#X obj 586 499 select 5 13;
#X obj 671 499 select 5 13;
#X obj 537 543 select 5 13;
#X obj 622 543 select 5 13;
#X obj 706 543 select 5 13;
#X obj 791 543 select 5 13;
#X obj 875 543 select 5 13;
#X obj 960 543 select 5 13;
#X obj 1044 543 select 5 13;
#X obj 1129 543 select 5 13;
#X connect 0 0 1 0;
#X connect 1 0 4 0;
#X connect 1 0 5 0;
#X connect 1 0 6 0;
#X connect 1 0 7 0;
#X connect 1 0 8 0;
#X connect 1 0 9 0;
#X connect 1 0 10 0;
#X connect 1 0 11 0;
#X connect 1 0 12 0;
#X connect 1 0 13 0;
#X connect 1 0 14 0;
#X connect 1 0 15 0;
#X connect 1 0 16 0;
#X connect 1 0 17 0;
#X connect 1 0 18 0;
#X connect 1 0 19 0;
#X connect 2 0 3 0;
#X connect 4 0 23 0;
#X connect 5 0 24 0;
#X connect 6 0 25 0;
#X connect 7 0 26 0;
#X connect 8 0 27 0;
#X connect 9 0 28 0;
#X connect 10 0 29 0;
#X connect 11 0 30 0;
#X connect 12 0 31 0;
#X connect 13 0 32 0;
#X connect 14 0 33 0;
#X connect 15 0 34 0;
#X connect 16 0 35 0;
#X connect 17 0 22 0;
#X connect 18 0 21 0;
#X connect 19 0 20 0;
#X connect 20 2 2 0;
#X connect 21 2 2 1;
#X connect 22 2 2 2;
#X connect 23 2 2 3;
#X connect 24 2 2 4;
#X connect 25 2 2 5;
#X connect 26 2 2 6;
#X connect 27 2 2 7;
#X connect 28 2 2 8;
#X connect 29 2 2 9;
#X connect 30 2 2 10;
#X connect 31 2 2 11;
#X connect 32 2 2 12;
#X connect 33 2 2 13;
#X connect 34 2 2 14;
#X connect 35 2 2 15;
#X restore 970 60 pd rand;
#X obj 1058 111 unpack f f f f f f f f f f f f f f f f;
#X msg 961 243 set \$1;
#X msg 1014 243 set \$1;
#X msg 1068 242 set \$1;
#X msg 1121 242 set \$1;
#X msg 1226 242 set \$1;
#X msg 1280 241 set \$1;
#X msg 1333 241 set \$1;
#X msg 981 288 set \$1;
#X msg 1034 288 set \$1;
#X msg 1088 287 set \$1;
#X msg 1141 287 set \$1;
#X msg 1245 287 set \$1;
#X msg 1299 286 set \$1;
#X msg 1352 286 set \$1;
#X obj 1022 806 bng 17 250 50 0 empty empty empty 0 -10 0 12 #fcfcfc #000000 #000000;
#X obj 1042 806 bng 17 250 50 0 empty empty empty 0 -10 0 12 #fcfcfc #000000 #000000;
#X obj 1063 806 bng 17 250 50 0 empty empty empty 0 -10 0 12 #fcfcfc #000000 #000000;
#X obj 1083 806 bng 17 250 50 0 empty empty empty 0 -10 0 12 #fcfcfc #000000 #000000;
#X obj 1110 806 bng 17 250 50 0 empty empty empty 0 -10 0 12 #fcfcfc #000000 #000000;
#X obj 1130 806 bng 17 250 50 0 empty empty empty 0 -10 0 12 #fcfcfc #000000 #000000;
#X obj 1151 806 bng 17 250 50 0 empty empty empty 0 -10 0 12 #fcfcfc #000000 #000000;
#X obj 1171 806 bng 17 250 50 0 empty empty empty 0 -10 0 12 #fcfcfc #000000 #000000;
#X obj 1197 805 bng 17 250 50 0 empty empty empty 0 -10 0 12 #fcfcfc #000000 #000000;
#X obj 1218 805 bng 17 250 50 0 empty empty empty 0 -10 0 12 #fcfcfc #000000 #000000;
#X obj 1239 805 bng 17 250 50 0 empty empty empty 0 -10 0 12 #fcfcfc #000000 #000000;
#X obj 1260 804 bng 17 250 50 0 empty empty empty 0 -10 0 12 #fcfcfc #000000 #000000;
#X obj 1284 805 bng 17 250 50 0 empty empty empty 0 -10 0 12 #fcfcfc #000000 #000000;
#X obj 1305 805 bng 17 250 50 0 empty empty empty 0 -10 0 12 #fcfcfc #000000 #000000;
#X obj 1326 805 bng 17 250 50 0 empty empty empty 0 -10 0 12 #fcfcfc #000000 #000000;
#X obj 1347 805 bng 17 250 50 0 empty empty empty 0 -10 0 12 #fcfcfc #000000 #000000;
#X obj 917 411 select 0 1 2 3 4 5 6 7 8 9 10 11 12 13 14 15;
#X msg 189 274 120;
#N canvas 2026 213 1187 598 hit_probability 0;
#X obj 222 156 inlet a;
#X obj 232 382 select 1;
#X floatatom 155 219 5 0 0 0 - - - 0;
#X obj 221 278 random;
#X obj 342 479 bng 19 250 50 0 empty empty empty 0 -10 0 12 #fcfcfc #000000 #000000;
#X obj 213 481 bng 19 250 50 0 empty empty empty 0 -10 0 12 #fcfcfc #000000 #000000;
#X obj 317 188 bng 19 250 50 0 empty empty empty 0 -10 0 12 #fcfcfc #000000 #000000;
#X obj 79 155 inlet factor;
#X obj 210 520 outlet hit;
#X obj 335 524 outlet no_hit;
#X connect 0 0 3 0;
#X connect 1 0 4 0;
#X connect 1 1 5 0;
#X connect 2 0 3 1;
#X connect 3 0 1 0;
#X connect 4 0 9 0;
#X connect 5 0 8 0;
#X connect 6 0 3 0;
#X connect 7 0 2 0;
#X restore 1568 883 pd hit_probability;
#X obj 1688 824 bng 19 250 50 0 empty empty empty 0 -10 0 12 #fcfcfc #000000 #000000;
#X obj 1578 942 bng 19 250 50 0 empty empty empty 0 -10 0 12 #fcfcfc #000000 #000000;
#X obj 1717 933 bng 19 250 50 0 empty empty empty 0 -10 0 12 #fcfcfc #000000 #000000;
#X obj 1516 675 vsl 19 162 0 127 0 0 empty empty empty 0 -9 0 12 #fcfcfc #000000 #000000 0 1;
#X obj 117 254 key 32;
#X obj 117 309 bng 19 250 50 0 empty empty empty 0 -10 0 12 #fcfcfc #000000 #000000;
#X obj 534 773 snapshot~;
#X floatatom 534 797 10 0 0 0 - - - 0;
#X obj 374 495 metro 200;
#X msg 1173 242 set 5;
#X msg 1192 287 set 13;
#X text 231 294 <-- TEMPO;
#X obj 189 318 * 4;
#X msg 330 168 read -resize /Users/nweiler/Downloads/sh1.wav asdf;
#X obj 657 545 phasor~;
#X floatatom 653 500 5 0 0 0 - - - 0;
#X obj 789 505 snapshot~;
#X floatatom 789 529 10 0 0 0 - - - 0;
#X obj 595 494 bng 19 250 50 0 empty empty empty 0 -10 0 12 #fcfcfc #000000 #000000;
#X obj 646 459 bng 19 250 50 0 empty empty empty 0 -10 0 12 #fcfcfc #000000 #000000;
#X obj 657 695 vline~;
#X obj 676 777 tabread~ asdf;
#X obj 117 282;
#X msg 513 665 1 1000;
#X obj 455 711 tgl 19 0 empty empty empty 0 -10 0 12 #fcfcfc #000000 #000000 0 1;
#X obj 455 735 metro 50;
#X msg 561 706 0 1000;
#X obj 701 734 *~;
#X floatatom 718 698 5 0 0 0 - - - 0;
#X connect 0 0 3 0;
#X connect 2 0 133 0;
#X connect 3 0 6 0;
#X connect 3 0 10 0;
#X connect 5 0 11 0;
#X connect 6 0 7 0;
#X connect 7 0 5 0;
#X connect 7 0 9 0;
#X connect 7 0 26 1;
#X connect 7 0 26 2;
#X connect 8 0 133 0;
#X connect 10 0 9 0;
#X connect 11 0 9 0;
#X connect 12 0 37 0;
#X connect 12 0 121 0;
#X connect 13 0 14 1;
#X connect 14 0 13 0;
#X connect 14 0 17 0;
#X connect 15 0 125 0;
#X connect 16 0 19 0;
#X connect 16 0 110 0;
#X connect 17 0 16 0;
#X connect 18 0 30 0;
#X connect 19 0 18 0;
#X connect 19 1 18 0;
#X connect 19 2 36 0;
#X connect 19 2 39 0;
#X connect 21 0 4 0;
#X connect 21 1 4 1;
#X connect 22 0 23 0;
#X connect 23 0 21 0;
#X connect 24 0 25 0;
#X connect 25 0 21 0;
#X connect 26 0 27 0;
#X connect 26 0 41 0;
#X connect 26 0 133 0;
#X connect 27 0 29 0;
#X connect 29 0 9 0;
#X connect 29 0 42 0;
#X connect 30 0 26 0;
#X connect 32 0 33 0;
#X connect 32 0 111 0;
#X connect 33 0 14 0;
#X connect 33 0 13 0;
#X connect 37 0 14 0;
#X connect 38 0 35 0;
#X connect 38 0 37 0;
#X connect 39 0 28 0;
#X connect 43 0 61 0;
#X connect 44 0 62 0;
#X connect 45 0 63 0;
#X connect 46 0 64 0;
#X connect 47 0 65 0;
#X connect 48 0 66 0;
#X connect 49 0 67 0;
#X connect 50 0 68 0;
#X connect 51 0 69 0;
#X connect 52 0 70 0;
#X connect 53 0 71 0;
#X connect 54 0 72 0;
#X connect 55 0 73 0;
#X connect 56 0 74 0;
#X connect 57 0 75 0;
#X connect 58 0 76 0;
#X connect 59 0 60 0;
#X connect 61 0 94 0;
#X connect 61 0 26 0;
#X connect 62 0 95 0;
#X connect 62 0 26 0;
#X connect 63 0 96 0;
#X connect 63 0 26 0;
#X connect 64 0 97 0;
#X connect 64 0 26 0;
#X connect 65 0 98 0;
#X connect 65 0 26 0;
#X connect 66 0 99 0;
#X connect 66 0 26 0;
#X connect 67 0 100 0;
#X connect 67 0 26 0;
#X connect 68 0 101 0;
#X connect 68 0 26 0;
#X connect 69 0 102 0;
#X connect 69 0 26 0;
#X connect 70 0 103 0;
#X connect 70 0 26 0;
#X connect 71 0 104 0;
#X connect 71 0 26 0;
#X connect 72 0 105 0;
#X connect 72 0 26 0;
#X connect 73 0 106 0;
#X connect 73 0 26 0;
#X connect 74 0 107 0;
#X connect 74 0 26 0;
#X connect 75 0 108 0;
#X connect 75 0 26 0;
#X connect 76 0 109 0;
#X connect 76 0 26 0;
#X connect 77 0 78 0;
#X connect 78 0 79 0;
#X connect 79 0 80 0;
#X connect 79 1 81 0;
#X connect 79 2 82 0;
#X connect 79 3 83 0;
#X connect 79 4 122 0;
#X connect 79 5 84 0;
#X connect 79 6 85 0;
#X connect 79 7 86 0;
#X connect 79 8 87 0;
#X connect 79 9 88 0;
#X connect 79 10 89 0;
#X connect 79 11 90 0;
#X connect 79 12 123 0;
#X connect 79 13 91 0;
#X connect 79 14 92 0;
#X connect 79 15 93 0;
#X connect 80 0 43 0;
#X connect 81 0 44 0;
#X connect 82 0 45 0;
#X connect 83 0 46 0;
#X connect 84 0 48 0;
#X connect 85 0 49 0;
#X connect 86 0 50 0;
#X connect 87 0 51 0;
#X connect 88 0 52 0;
#X connect 89 0 53 0;
#X connect 90 0 54 0;
#X connect 91 0 56 0;
#X connect 92 0 57 0;
#X connect 93 0 58 0;
#X connect 110 0 43 0;
#X connect 110 1 44 0;
#X connect 110 2 45 0;
#X connect 110 3 46 0;
#X connect 110 4 47 0;
#X connect 110 5 48 0;
#X connect 110 6 49 0;
#X connect 110 7 50 0;
#X connect 110 8 51 0;
#X connect 110 9 52 0;
#X connect 110 10 53 0;
#X connect 110 11 54 0;
#X connect 110 12 55 0;
#X connect 110 13 56 0;
#X connect 110 14 57 0;
#X connect 110 15 58 0;
#X connect 111 0 15 0;
#X connect 112 0 114 0;
#X connect 112 1 115 0;
#X connect 113 0 112 1;
#X connect 116 0 112 0;
#X connect 117 0 135 0;
#X connect 118 0 12 0;
#X connect 119 0 120 0;
#X connect 121 0 119 0;
#X connect 121 0 129 0;
#X connect 122 0 47 0;
#X connect 123 0 55 0;
#X connect 125 0 38 0;
#X connect 126 0 0 0;
#X connect 127 0 129 0;
#X connect 128 0 127 0;
#X connect 129 0 130 0;
#X connect 131 0 127 0;
#X connect 132 0 128 0;
#X connect 133 0 140 0;
#X connect 134 0 21 0;
#X connect 134 0 21 1;
#X connect 135 0 118 0;
#X connect 136 0 133 0;
#X connect 137 0 138 0;
#X connect 138 0 119 0;
#X connect 139 0 133 0;
#X connect 140 0 134 0;
#X connect 140 0 119 0;
#X connect 141 0 140 1;
