#N canvas 147 38 1316 916 12;
#X obj 330 179 soundfiler;
#N canvas 0 22 450 278 (subpatch) 0;
#X array asdf 4.05965e+06 float 2;
#A color 0;
#A width 2;
#X coords 0 1 4.05965e+06 -1 200 140 1;
#X restore 649 145 graph;
#X msg 669 666 set asdf;
#X floatatom 330 208 17 0 0 0 - - - 0;
#X obj 661 729 tabplay~ asdf;
#X obj 731 874 dac~;
#X msg 505 303 0 \$1;
#X obj 331 235 / 16;
#X floatatom 331 259 9 0 0 0 - - - 0;
#X msg 688 696 stop;
#X obj 650 283 hsl 200 19 0 4.05965e+06 0 0 empty empty empty -2 -10 0 12 #fcfcfc #000000 #000000 0 1;
#X msg 565 247 range 0 \$1;
#X obj 505 327 line 0 100000;
#X obj 117 336 tgl 19 0 empty empty empty 0 -10 0 12 #fcfcfc #000000 #000000 0 1;
#X floatatom 159 425 5 0 0 0 - - - 0;
#X obj 117 438 + 1;
#X floatatom 189 269 5 0 0 0 - - - 0;
#X floatatom 117 504 5 0 0 0 - - - 0;
#X obj 117 480 mod 16;
#X obj 117 568 bng 19 250 50 0 empty empty empty 0 -10 0 12 #fcfcfc #000000 #000000;
#X obj 117 535 select 5 13;
#X text 168 515 Snare on 2 and 4;
#X obj 717 831 freeverb~;
#X obj 772 586 vsl 19 162 0 1 0 0 empty empty empty 0 -9 0 12 #fcfcfc #000000 #000000 0 1;
#X msg 773 764 wet \$1;
#X obj 840 589 vsl 19 162 0 1 0 0 empty empty empty 0 -9 0 12 #fcfcfc #000000 #000000 0 1;
#X msg 838 766 dry \$1;
#N canvas 116 38 1306 658 seq1 0;
#X obj 35 246 bng 19 250 50 0 empty empty empty 0 -10 0 12 #fcfcfc #000000 #000000;
#X obj 106 247 bng 19 250 50 0 empty empty empty 0 -10 0 12 #fcfcfc #000000 #000000;
#X floatatom 179 272 8 0 0 0 - - - 0;
#X obj 179 247 bng 19 250 50 0 empty empty empty 0 -10 0 12 #fcfcfc #000000 #000000;
#X floatatom 105 271 8 0 0 0 - - - 0;
#X floatatom 35 271 7 0 0 0 - - - 0;
#X floatatom 251 270 8 0 0 0 - - - 0;
#X obj 252 246 bng 19 250 50 0 empty empty empty 0 -10 0 12 #fcfcfc #000000 #000000;
#X floatatom 332 270 8 0 0 0 - - - 0;
#X obj 331 245 bng 19 250 50 0 empty empty empty 0 -10 0 12 #fcfcfc #000000 #000000;
#X floatatom 406 271 8 0 0 0 - - - 0;
#X obj 406 246 bng 19 250 50 0 empty empty empty 0 -10 0 12 #fcfcfc #000000 #000000;
#X obj 478 247 bng 19 250 50 0 empty empty empty 0 -10 0 12 #fcfcfc #000000 #000000;
#X obj 549 248 bng 19 250 50 0 empty empty empty 0 -10 0 12 #fcfcfc #000000 #000000;
#X floatatom 622 273 8 0 0 0 - - - 0;
#X obj 622 248 bng 19 250 50 0 empty empty empty 0 -10 0 12 #fcfcfc #000000 #000000;
#X floatatom 548 272 8 0 0 0 - - - 0;
#X floatatom 478 272 7 0 0 0 - - - 0;
#X floatatom 694 271 8 0 0 0 - - - 0;
#X obj 695 247 bng 19 250 50 0 empty empty empty 0 -10 0 12 #fcfcfc #000000 #000000;
#X floatatom 775 271 8 0 0 0 - - - 0;
#X obj 774 246 bng 19 250 50 0 empty empty empty 0 -10 0 12 #fcfcfc #000000 #000000;
#X floatatom 849 272 8 0 0 0 - - - 0;
#X obj 849 247 bng 19 250 50 0 empty empty empty 0 -10 0 12 #fcfcfc #000000 #000000;
#X floatatom 920 272 8 0 0 0 - - - 0;
#X obj 920 247 bng 19 250 50 0 empty empty empty 0 -10 0 12 #fcfcfc #000000 #000000;
#X floatatom 992 270 8 0 0 0 - - - 0;
#X obj 993 246 bng 19 250 50 0 empty empty empty 0 -10 0 12 #fcfcfc #000000 #000000;
#X floatatom 1073 270 8 0 0 0 - - - 0;
#X obj 1072 245 bng 19 250 50 0 empty empty empty 0 -10 0 12 #fcfcfc #000000 #000000;
#X floatatom 1147 271 8 0 0 0 - - - 0;
#X obj 1147 246 bng 19 250 50 0 empty empty empty 0 -10 0 12 #fcfcfc #000000 #000000;
#X obj 61 245 * 0;
#X obj 134 246 * 1;
#X obj 207 248 * 2;
#X obj 282 246 * 3;
#X obj 361 247 * 4;
#X obj 433 247 * 5;
#X obj 504 246 * 6;
#X obj 577 247 * 7;
#X obj 650 249 * 8;
#X obj 804 248 * 10;
#X obj 725 247 * 9;
#X obj 876 248 * 11;
#X obj 948 248 * 12;
#X obj 1023 246 * 13;
#X obj 1102 247 * 14;
#X obj 1174 247 * 15;
#X obj 66 68 select 1 2 3 4 5 6 7 8 9 10 11 12 13 14 15 16;
#X obj 65 22 inlet num;
#X obj 608 527 outlet msg;
#X obj 618 59 inlet slice_size;
#X obj 1034 59 inlet slice_length;
#X obj 607 473 pack f f;
#X obj 343 542 print;
#X connect 0 0 5 0;
#X connect 1 0 4 0;
#X connect 2 0 53 0;
#X connect 3 0 2 0;
#X connect 4 0 53 0;
#X connect 5 0 53 0;
#X connect 6 0 53 0;
#X connect 7 0 6 0;
#X connect 8 0 53 0;
#X connect 9 0 8 0;
#X connect 10 0 53 0;
#X connect 11 0 10 0;
#X connect 12 0 17 0;
#X connect 13 0 16 0;
#X connect 14 0 53 0;
#X connect 15 0 14 0;
#X connect 16 0 53 0;
#X connect 17 0 53 0;
#X connect 18 0 53 0;
#X connect 19 0 18 0;
#X connect 20 0 53 0;
#X connect 21 0 20 0;
#X connect 22 0 53 0;
#X connect 23 0 22 0;
#X connect 24 0 53 0;
#X connect 25 0 24 0;
#X connect 26 0 53 0;
#X connect 27 0 26 0;
#X connect 28 0 53 0;
#X connect 29 0 28 0;
#X connect 30 0 53 0;
#X connect 31 0 30 0;
#X connect 32 0 5 0;
#X connect 33 0 4 0;
#X connect 34 0 2 0;
#X connect 35 0 6 0;
#X connect 36 0 8 0;
#X connect 37 0 10 0;
#X connect 38 0 17 0;
#X connect 39 0 16 0;
#X connect 40 0 14 0;
#X connect 41 0 20 0;
#X connect 42 0 18 0;
#X connect 43 0 22 0;
#X connect 44 0 24 0;
#X connect 45 0 26 0;
#X connect 46 0 28 0;
#X connect 47 0 30 0;
#X connect 48 0 0 0;
#X connect 48 1 1 0;
#X connect 48 2 3 0;
#X connect 48 3 7 0;
#X connect 48 4 9 0;
#X connect 48 5 11 0;
#X connect 48 6 12 0;
#X connect 48 7 13 0;
#X connect 48 8 15 0;
#X connect 48 9 19 0;
#X connect 48 10 21 0;
#X connect 48 11 23 0;
#X connect 48 12 25 0;
#X connect 48 13 27 0;
#X connect 48 14 29 0;
#X connect 48 15 31 0;
#X connect 49 0 48 0;
#X connect 51 0 32 0;
#X connect 51 0 33 0;
#X connect 51 0 34 0;
#X connect 51 0 35 0;
#X connect 51 0 36 0;
#X connect 51 0 37 0;
#X connect 51 0 38 0;
#X connect 51 0 39 0;
#X connect 51 0 40 0;
#X connect 51 0 42 0;
#X connect 51 0 41 0;
#X connect 51 0 43 0;
#X connect 51 0 44 0;
#X connect 51 0 45 0;
#X connect 51 0 46 0;
#X connect 51 0 47 0;
#X connect 52 0 53 1;
#X connect 53 0 54 0;
#X connect 53 0 50 0;
#X restore 320 542 pd seq1;
#X floatatom 462 564 19 0 0 0 - - - 0;
#X floatatom 413 510 3 0 0 0 - - - 0;
#X msg 559 362 set \$1;
#X msg 116 597 13;
#X text 110 615 Step # with snare sound;
#X obj 19 346 loadbang;
#X msg 40 380 1;
#X text 140 336 RUN!;
#X msg 330 149 read -resize /Users/nweiler/phase.wav asdf;
#X obj 189 364 print;
#X obj 190 565 bng 19 250 50 0 empty empty empty 0 -10 0 12 #fcfcfc #000000 #000000;
#X obj 117 391 metro 1 480 permin;
#X msg 189 340 tempo \$1 permin;
#X obj 320 510 random 16;
#X text 440 512 Step#;
#X floatatom 391 351 10 0 0 0 - - - 0;
#X obj 190 305 * 2;
#X listbox 302 665 27 0 0 0 - - - 0;
#X connect 0 0 3 0;
#X connect 2 0 4 0;
#X connect 3 0 7 0;
#X connect 3 0 11 0;
#X connect 4 0 22 0;
#X connect 4 0 22 1;
#X connect 6 0 12 0;
#X connect 7 0 8 0;
#X connect 8 0 6 0;
#X connect 8 0 10 0;
#X connect 8 0 27 1;
#X connect 8 0 27 2;
#X connect 8 0 43 0;
#X connect 9 0 4 0;
#X connect 11 0 10 0;
#X connect 12 0 10 0;
#X connect 13 0 39 0;
#X connect 14 0 15 1;
#X connect 15 0 14 0;
#X connect 15 0 18 0;
#X connect 16 0 44 0;
#X connect 17 0 20 0;
#X connect 18 0 17 0;
#X connect 19 0 31 0;
#X connect 20 0 19 0;
#X connect 20 1 19 0;
#X connect 20 2 38 0;
#X connect 20 2 41 0;
#X connect 22 0 5 0;
#X connect 22 1 5 1;
#X connect 23 0 24 0;
#X connect 24 0 22 0;
#X connect 25 0 26 0;
#X connect 26 0 22 0;
#X connect 27 0 28 0;
#X connect 27 0 4 0;
#X connect 27 0 45 0;
#X connect 28 0 30 0;
#X connect 30 0 10 0;
#X connect 31 0 27 0;
#X connect 33 0 34 0;
#X connect 34 0 15 0;
#X connect 34 0 14 0;
#X connect 36 0 0 0;
#X connect 39 0 15 0;
#X connect 40 0 37 0;
#X connect 40 0 39 0;
#X connect 41 0 29 0;
#X connect 41 0 27 0;
#X connect 43 0 27 2;
#X connect 44 0 40 0;
