#N canvas 0 38 1512 916 12;
#X obj 414 148 soundfiler;
#N canvas 0 22 450 278 (subpatch) 0;
#X array asdf 4.05965e+06 float 2;
#A color 0;
#A width 2;
#X coords 0 1 4.05965e+06 -1 200 140 1;
#X restore 606 133 graph;
#X floatatom 105 228 7 0 0 0 - - - 0;
#X obj 105 251 sig~;
#X obj 107 298 tabread~ asdf;
#X msg 545 822 set asdf;
#X floatatom 394 250 11 0 0 0 - - - 0;
#X obj 635 822 tabplay~ asdf;
#X obj 731 874 dac~;
#X msg 512 183 0 \$1;
#X obj 293 416 / 16;
#X floatatom 293 440 9 0 0 0 - - - 0;
#X msg 557 867 stop;
#X obj 607 271 hsl 200 19 0 4.05965e+06 0 0 empty empty empty -2 -10 0 12 #fcfcfc #000000 #000000 0 1;
#X msg 500 314 range 0 \$1;
#X obj 458 333 bng 19 250 50 0 empty empty empty 0 -10 0 12 #fcfcfc #000000 #000000;
#X obj 495 218 line 0 100000;
#X obj 27 572 bng 19 250 50 0 empty empty empty 0 -10 0 12 #fcfcfc #000000 #000000;
#X obj 98 573 bng 19 250 50 0 empty empty empty 0 -10 0 12 #fcfcfc #000000 #000000;
#X floatatom 171 598 8 0 0 0 - - - 0;
#X obj 171 573 bng 19 250 50 0 empty empty empty 0 -10 0 12 #fcfcfc #000000 #000000;
#X floatatom 97 597 8 0 0 0 - - - 0;
#X floatatom 27 597 7 0 0 0 - - - 0;
#X floatatom 243 596 8 0 0 0 - - - 0;
#X obj 244 572 bng 19 250 50 0 empty empty empty 0 -10 0 12 #fcfcfc #000000 #000000;
#X floatatom 324 596 8 0 0 0 - - - 0;
#X obj 323 571 bng 19 250 50 0 empty empty empty 0 -10 0 12 #fcfcfc #000000 #000000;
#X floatatom 398 597 8 0 0 0 - - - 0;
#X obj 398 572 bng 19 250 50 0 empty empty empty 0 -10 0 12 #fcfcfc #000000 #000000;
#X msg 612 330 set \$1;
#X obj 470 573 bng 19 250 50 0 empty empty empty 0 -10 0 12 #fcfcfc #000000 #000000;
#X obj 541 574 bng 19 250 50 0 empty empty empty 0 -10 0 12 #fcfcfc #000000 #000000;
#X floatatom 614 599 8 0 0 0 - - - 0;
#X obj 614 574 bng 19 250 50 0 empty empty empty 0 -10 0 12 #fcfcfc #000000 #000000;
#X floatatom 540 598 8 0 0 0 - - - 0;
#X floatatom 470 598 7 0 0 0 - - - 0;
#X floatatom 686 597 8 0 0 0 - - - 0;
#X obj 687 573 bng 19 250 50 0 empty empty empty 0 -10 0 12 #fcfcfc #000000 #000000;
#X floatatom 767 597 8 0 0 0 - - - 0;
#X obj 766 572 bng 19 250 50 0 empty empty empty 0 -10 0 12 #fcfcfc #000000 #000000;
#X floatatom 841 598 8 0 0 0 - - - 0;
#X obj 841 573 bng 19 250 50 0 empty empty empty 0 -10 0 12 #fcfcfc #000000 #000000;
#X floatatom 912 598 8 0 0 0 - - - 0;
#X obj 912 573 bng 19 250 50 0 empty empty empty 0 -10 0 12 #fcfcfc #000000 #000000;
#X floatatom 984 596 8 0 0 0 - - - 0;
#X obj 985 572 bng 19 250 50 0 empty empty empty 0 -10 0 12 #fcfcfc #000000 #000000;
#X floatatom 1065 596 8 0 0 0 - - - 0;
#X obj 1064 571 bng 19 250 50 0 empty empty empty 0 -10 0 12 #fcfcfc #000000 #000000;
#X floatatom 1139 597 8 0 0 0 - - - 0;
#X obj 1139 572 bng 19 250 50 0 empty empty empty 0 -10 0 12 #fcfcfc #000000 #000000;
#X msg 26 621 \$1 8449;
#X msg 97 621 \$1 8449;
#X msg 171 620 \$1 8449;
#X msg 244 620 \$1 8449;
#X msg 325 620 \$1 8449;
#X msg 399 621 \$1 8449;
#X msg 469 622 \$1 8449;
#X msg 540 622 \$1 8449;
#X msg 614 621 \$1 8449;
#X msg 687 621 \$1 8449;
#X msg 768 621 \$1 8449;
#X msg 842 622 \$1 8449;
#X msg 912 620 \$1 8449;
#X msg 985 620 \$1 8449;
#X msg 1066 620 \$1 8449;
#X msg 1140 621 \$1 8449;
#X obj 118 379 metro 200;
#X obj 71 326 tgl 19 0 empty empty empty 0 -10 0 12 #fcfcfc #000000 #000000 0 1;
#X floatatom 159 425 5 0 0 0 - - - 0;
#X obj 117 438 + 1;
#X floatatom 60 391 5 0 0 0 - - - 0;
#X obj 36 471 mod 16;
#X obj 812 320 select 0 1 2 3 4 5 6 7 8 9 10 11 12 13 14 15;
#X obj 48 510 - 1;
#X floatatom 211 340 5 0 0 0 - - - 0;
#X obj 53 571 * 0;
#X obj 126 572 * 1;
#X obj 199 574 * 2;
#X obj 274 572 * 3;
#X obj 353 573 * 4;
#X obj 425 573 * 5;
#X obj 496 572 * 6;
#X obj 569 573 * 7;
#X obj 642 575 * 8;
#X obj 796 574 * 10;
#X obj 717 573 * 9;
#X obj 868 574 * 11;
#X obj 940 574 * 12;
#X obj 1015 572 * 13;
#X obj 1094 573 * 14;
#X obj 1166 573 * 15;
#X obj 1040 235 random 15;
#X floatatom 121 768 5 0 0 0 - - - 0;
#X obj 121 744 mod 16;
#X obj 180 864 bng 19 250 50 0 empty empty empty 0 -10 0 12 #fcfcfc #000000 #000000;
#X obj 153 816 select 5 13;
#X text 259 816 Snare on 2 and 4;
#X msg 411 72 read -resize /Users/nweiler/phase.wav asdf;
#X obj 909 836 freeverb~;
#X obj 1280 592 vsl 19 162 0 1 0 0 empty empty empty 0 -9 0 12 #fcfcfc #000000 #000000 0 1;
#X msg 1077 765 wet \$1;
#X obj 1345 613 vsl 19 162 0 1 0 0 empty empty empty 0 -9 0 12 #fcfcfc #000000 #000000 0 1;
#X msg 1142 786 dry \$1;
#N canvas 63 101 1246 649 seq1 1;
#X obj 35 246 bng 19 250 50 0 empty empty empty 0 -10 0 12 #fcfcfc #000000 #000000;
#X obj 106 247 bng 19 250 50 0 empty empty empty 0 -10 0 12 #fcfcfc #000000 #000000;
#X floatatom 179 272 8 0 0 0 - - - 0;
#X obj 179 247 bng 19 250 50 0 empty empty empty 0 -10 0 12 #fcfcfc #000000 #000000;
#X floatatom 105 271 8 0 0 0 - - - 0;
#X floatatom 35 271 7 0 0 0 - - - 0;
#X floatatom 251 270 8 0 0 0 - - - 0;
#X obj 252 246 bng 19 250 50 0 empty empty empty 0 -10 0 12 #fcfcfc #000000 #000000;
#X floatatom 332 270 8 0 0 0 - - - 0;
#X obj 331 245 bng 19 250 50 0 empty empty empty 0 -10 0 12 #fcfcfc #000000 #000000;
#X floatatom 406 271 8 0 0 0 - - - 0;
#X obj 406 246 bng 19 250 50 0 empty empty empty 0 -10 0 12 #fcfcfc #000000 #000000;
#X obj 478 247 bng 19 250 50 0 empty empty empty 0 -10 0 12 #fcfcfc #000000 #000000;
#X obj 549 248 bng 19 250 50 0 empty empty empty 0 -10 0 12 #fcfcfc #000000 #000000;
#X floatatom 622 273 8 0 0 0 - - - 0;
#X obj 622 248 bng 19 250 50 0 empty empty empty 0 -10 0 12 #fcfcfc #000000 #000000;
#X floatatom 548 272 8 0 0 0 - - - 0;
#X floatatom 478 272 7 0 0 0 - - - 0;
#X floatatom 694 271 8 0 0 0 - - - 0;
#X obj 695 247 bng 19 250 50 0 empty empty empty 0 -10 0 12 #fcfcfc #000000 #000000;
#X floatatom 775 271 8 0 0 0 - - - 0;
#X obj 774 246 bng 19 250 50 0 empty empty empty 0 -10 0 12 #fcfcfc #000000 #000000;
#X floatatom 849 272 8 0 0 0 - - - 0;
#X obj 849 247 bng 19 250 50 0 empty empty empty 0 -10 0 12 #fcfcfc #000000 #000000;
#X floatatom 920 272 8 0 0 0 - - - 0;
#X obj 920 247 bng 19 250 50 0 empty empty empty 0 -10 0 12 #fcfcfc #000000 #000000;
#X floatatom 992 270 8 0 0 0 - - - 0;
#X obj 993 246 bng 19 250 50 0 empty empty empty 0 -10 0 12 #fcfcfc #000000 #000000;
#X floatatom 1073 270 8 0 0 0 - - - 0;
#X obj 1072 245 bng 19 250 50 0 empty empty empty 0 -10 0 12 #fcfcfc #000000 #000000;
#X floatatom 1147 271 8 0 0 0 - - - 0;
#X obj 1147 246 bng 19 250 50 0 empty empty empty 0 -10 0 12 #fcfcfc #000000 #000000;
#X msg 34 295 \$1 8449;
#X msg 105 295 \$1 8449;
#X msg 179 294 \$1 8449;
#X msg 252 294 \$1 8449;
#X msg 333 294 \$1 8449;
#X msg 407 295 \$1 8449;
#X msg 477 296 \$1 8449;
#X msg 548 296 \$1 8449;
#X msg 622 295 \$1 8449;
#X msg 695 295 \$1 8449;
#X msg 776 295 \$1 8449;
#X msg 850 296 \$1 8449;
#X msg 920 294 \$1 8449;
#X msg 993 294 \$1 8449;
#X msg 1074 294 \$1 8449;
#X msg 1148 295 \$1 8449;
#X obj 61 245 * 0;
#X obj 134 246 * 1;
#X obj 207 248 * 2;
#X obj 282 246 * 3;
#X obj 361 247 * 4;
#X obj 433 247 * 5;
#X obj 504 246 * 6;
#X obj 577 247 * 7;
#X obj 650 249 * 8;
#X obj 804 248 * 10;
#X obj 725 247 * 9;
#X obj 876 248 * 11;
#X obj 948 248 * 12;
#X obj 1023 246 * 13;
#X obj 1102 247 * 14;
#X obj 1174 247 * 15;
#X obj 441 118 select 1 2 3 4 5 6 7 8 9 10 11 12 13 14 15 16;
#X obj 547 25 inlet num;
#X obj 608 527 outlet msg;
#X connect 0 0 5 0;
#X connect 1 0 4 0;
#X connect 2 0 34 0;
#X connect 3 0 2 0;
#X connect 4 0 33 0;
#X connect 5 0 32 0;
#X connect 6 0 35 0;
#X connect 7 0 6 0;
#X connect 8 0 36 0;
#X connect 9 0 8 0;
#X connect 10 0 37 0;
#X connect 11 0 10 0;
#X connect 12 0 17 0;
#X connect 13 0 16 0;
#X connect 14 0 40 0;
#X connect 15 0 14 0;
#X connect 16 0 39 0;
#X connect 17 0 38 0;
#X connect 18 0 41 0;
#X connect 19 0 18 0;
#X connect 20 0 42 0;
#X connect 21 0 20 0;
#X connect 22 0 43 0;
#X connect 23 0 22 0;
#X connect 24 0 44 0;
#X connect 25 0 24 0;
#X connect 26 0 45 0;
#X connect 27 0 26 0;
#X connect 28 0 46 0;
#X connect 29 0 28 0;
#X connect 30 0 47 0;
#X connect 31 0 30 0;
#X connect 32 0 66 0;
#X connect 33 0 66 0;
#X connect 34 0 66 0;
#X connect 35 0 66 0;
#X connect 36 0 66 0;
#X connect 37 0 66 0;
#X connect 38 0 66 0;
#X connect 39 0 66 0;
#X connect 40 0 66 0;
#X connect 41 0 66 0;
#X connect 42 0 66 0;
#X connect 43 0 66 0;
#X connect 44 0 66 0;
#X connect 45 0 66 0;
#X connect 46 0 66 0;
#X connect 47 0 66 0;
#X connect 48 0 5 0;
#X connect 49 0 4 0;
#X connect 50 0 2 0;
#X connect 51 0 6 0;
#X connect 52 0 8 0;
#X connect 53 0 10 0;
#X connect 54 0 17 0;
#X connect 55 0 16 0;
#X connect 56 0 14 0;
#X connect 57 0 20 0;
#X connect 58 0 18 0;
#X connect 59 0 22 0;
#X connect 60 0 24 0;
#X connect 61 0 26 0;
#X connect 62 0 28 0;
#X connect 63 0 30 0;
#X connect 64 0 0 0;
#X connect 64 1 1 0;
#X connect 64 2 3 0;
#X connect 64 3 7 0;
#X connect 64 4 9 0;
#X connect 64 5 11 0;
#X connect 64 6 12 0;
#X connect 64 7 13 0;
#X connect 64 8 15 0;
#X connect 64 9 19 0;
#X connect 64 10 21 0;
#X connect 64 11 23 0;
#X connect 64 12 25 0;
#X connect 64 13 27 0;
#X connect 64 14 29 0;
#X connect 64 15 31 0;
#X connect 65 0 64 0;
#X restore 1151 416 pd seq1;
#X connect 0 0 6 0;
#X connect 2 0 3 0;
#X connect 3 0 4 0;
#X connect 5 0 7 0;
#X connect 6 0 10 0;
#X connect 6 0 14 0;
#X connect 7 0 98 0;
#X connect 7 0 98 1;
#X connect 9 0 16 0;
#X connect 10 0 11 0;
#X connect 11 0 9 0;
#X connect 11 0 13 0;
#X connect 11 0 75 0;
#X connect 11 0 76 0;
#X connect 11 0 77 0;
#X connect 11 0 78 0;
#X connect 11 0 79 0;
#X connect 11 0 80 0;
#X connect 11 0 81 0;
#X connect 11 0 82 0;
#X connect 11 0 83 0;
#X connect 11 0 84 0;
#X connect 11 0 85 0;
#X connect 11 0 86 0;
#X connect 11 0 87 0;
#X connect 11 0 88 0;
#X connect 11 0 89 0;
#X connect 11 0 90 0;
#X connect 12 0 7 0;
#X connect 14 0 13 0;
#X connect 15 0 13 0;
#X connect 16 0 13 0;
#X connect 17 0 22 0;
#X connect 18 0 21 0;
#X connect 19 0 52 0;
#X connect 19 0 29 0;
#X connect 20 0 19 0;
#X connect 21 0 51 0;
#X connect 21 0 29 0;
#X connect 22 0 50 0;
#X connect 22 0 29 0;
#X connect 23 0 53 0;
#X connect 23 0 29 0;
#X connect 24 0 23 0;
#X connect 25 0 54 0;
#X connect 25 0 29 0;
#X connect 26 0 25 0;
#X connect 27 0 55 0;
#X connect 27 0 29 0;
#X connect 28 0 27 0;
#X connect 29 0 13 0;
#X connect 30 0 35 0;
#X connect 31 0 34 0;
#X connect 32 0 58 0;
#X connect 32 0 29 0;
#X connect 33 0 32 0;
#X connect 34 0 57 0;
#X connect 34 0 29 0;
#X connect 35 0 56 0;
#X connect 35 0 29 0;
#X connect 36 0 59 0;
#X connect 36 0 29 0;
#X connect 37 0 36 0;
#X connect 38 0 60 0;
#X connect 38 0 29 0;
#X connect 39 0 38 0;
#X connect 40 0 61 0;
#X connect 40 0 29 0;
#X connect 41 0 40 0;
#X connect 42 0 62 0;
#X connect 42 0 29 0;
#X connect 43 0 42 0;
#X connect 44 0 63 0;
#X connect 44 0 29 0;
#X connect 45 0 44 0;
#X connect 46 0 64 0;
#X connect 46 0 29 0;
#X connect 47 0 46 0;
#X connect 48 0 29 0;
#X connect 48 0 65 0;
#X connect 49 0 48 0;
#X connect 50 0 7 0;
#X connect 51 0 7 0;
#X connect 52 0 7 0;
#X connect 53 0 7 0;
#X connect 54 0 7 0;
#X connect 55 0 7 0;
#X connect 56 0 7 0;
#X connect 57 0 7 0;
#X connect 58 0 7 0;
#X connect 59 0 7 0;
#X connect 60 0 7 0;
#X connect 61 0 7 0;
#X connect 62 0 7 0;
#X connect 63 0 7 0;
#X connect 64 0 7 0;
#X connect 65 0 7 0;
#X connect 66 0 69 0;
#X connect 67 0 66 0;
#X connect 68 0 69 1;
#X connect 69 0 68 0;
#X connect 69 0 71 0;
#X connect 69 0 93 0;
#X connect 70 0 69 0;
#X connect 71 0 73 0;
#X connect 72 0 17 0;
#X connect 72 1 18 0;
#X connect 72 2 20 0;
#X connect 72 3 24 0;
#X connect 72 4 26 0;
#X connect 72 5 28 0;
#X connect 72 6 30 0;
#X connect 72 7 31 0;
#X connect 72 8 33 0;
#X connect 72 9 37 0;
#X connect 72 10 39 0;
#X connect 72 11 41 0;
#X connect 72 12 43 0;
#X connect 72 13 45 0;
#X connect 72 14 47 0;
#X connect 72 15 49 0;
#X connect 74 0 66 1;
#X connect 75 0 22 0;
#X connect 76 0 21 0;
#X connect 77 0 19 0;
#X connect 78 0 23 0;
#X connect 79 0 25 0;
#X connect 80 0 27 0;
#X connect 81 0 35 0;
#X connect 82 0 34 0;
#X connect 83 0 32 0;
#X connect 84 0 38 0;
#X connect 85 0 36 0;
#X connect 86 0 40 0;
#X connect 87 0 42 0;
#X connect 88 0 44 0;
#X connect 89 0 46 0;
#X connect 90 0 48 0;
#X connect 91 0 72 0;
#X connect 92 0 95 0;
#X connect 93 0 92 0;
#X connect 95 0 94 0;
#X connect 95 0 87 0;
#X connect 95 1 94 0;
#X connect 95 1 87 0;
#X connect 95 2 91 0;
#X connect 97 0 0 0;
#X connect 98 0 8 0;
#X connect 98 1 8 1;
#X connect 99 0 100 0;
#X connect 100 0 98 0;
#X connect 101 0 102 0;
#X connect 102 0 98 0;
